<?xml version="1.0" standalone="no"?><svg xmlns="http://www.w3.org/2000/svg" viewBox="0 0 1440 320"><path fill="#ffd700" fill-opacity="1" d="M0,192L6.2,186.7C12.3,181,25,171,37,165.3C49.2,160,62,160,74,170.7C86.2,181,98,203,111,224C123.1,245,135,267,148,245.3C160,224,172,160,185,144C196.9,128,209,160,222,192C233.8,224,246,256,258,256C270.8,256,283,224,295,192C307.7,160,320,128,332,112C344.6,96,357,96,369,96C381.5,96,394,96,406,106.7C418.5,117,431,139,443,133.3C455.4,128,468,96,480,74.7C492.3,53,505,43,517,64C529.2,85,542,139,554,160C566.2,181,578,171,591,181.3C603.1,192,615,224,628,208C640,192,652,128,665,96C676.9,64,689,64,702,69.3C713.8,75,726,85,738,85.3C750.8,85,763,75,775,80C787.7,85,800,107,812,128C824.6,149,837,171,849,176C861.5,181,874,171,886,149.3C898.5,128,911,96,923,112C935.4,128,948,192,960,186.7C972.3,181,985,107,997,90.7C1009.2,75,1022,117,1034,112C1046.2,107,1058,53,1071,74.7C1083.1,96,1095,192,1108,202.7C1120,213,1132,139,1145,122.7C1156.9,107,1169,149,1182,144C1193.8,139,1206,85,1218,85.3C1230.8,85,1243,139,1255,176C1267.7,213,1280,235,1292,250.7C1304.6,267,1317,277,1329,266.7C1341.5,256,1354,224,1366,218.7C1378.5,213,1391,235,1403,245.3C1415.4,256,1428,256,1434,256L1440,256L1440,0L1433.8,0C1427.7,0,1415,0,1403,0C1390.8,0,1378,0,1366,0C1353.8,0,1342,0,1329,0C1316.9,0,1305,0,1292,0C1280,0,1268,0,1255,0C1243.1,0,1231,0,1218,0C1206.2,0,1194,0,1182,0C1169.2,0,1157,0,1145,0C1132.3,0,1120,0,1108,0C1095.4,0,1083,0,1071,0C1058.5,0,1046,0,1034,0C1021.5,0,1009,0,997,0C984.6,0,972,0,960,0C947.7,0,935,0,923,0C910.8,0,898,0,886,0C873.8,0,862,0,849,0C836.9,0,825,0,812,0C800,0,788,0,775,0C763.1,0,751,0,738,0C726.2,0,714,0,702,0C689.2,0,677,0,665,0C652.3,0,640,0,628,0C615.4,0,603,0,591,0C578.5,0,566,0,554,0C541.5,0,529,0,517,0C504.6,0,492,0,480,0C467.7,0,455,0,443,0C430.8,0,418,0,406,0C393.8,0,382,0,369,0C356.9,0,345,0,332,0C320,0,308,0,295,0C283.1,0,271,0,258,0C246.2,0,234,0,222,0C209.2,0,197,0,185,0C172.3,0,160,0,148,0C135.4,0,123,0,111,0C98.5,0,86,0,74,0C61.5,0,49,0,37,0C24.6,0,12,0,6,0L0,0Z"></path></svg>